<svg xmlns="http://www.w3.org/2000/svg" viewBox="0 0 459.796 459.796" width="512" height="512"><g fill="#4CB648"><path d="M256.619 236.777l-38.053-25.137 27.316-26.949-25.681-54.261 45.741 54.222a18.775 18.775 0 0 0 16.491 6.546l74.518-8.549c10.3-1.182 17.693-10.491 16.512-20.791-1.181-10.301-10.475-17.693-20.792-16.512l-64.518 7.402-39.252-46.53 37.983 26.622c.078-6.99-2.443-14.013-7.601-19.494l-33.434-35.529a27.992 27.992 0 0 0-40.791.021l-80.205 85.409c-12.744 13.571-9.889 35.279 5.593 45.217l12.381 7.948-29.83-.033c-8.687 0-15.73 7.043-15.73 15.73 0 8.687 7.042 15.73 15.73 15.73h21.267l-14.219 27.006a93.93 93.93 0 0 0-25.874-3.615C42.244 271.229 0 313.474 0 365.4s42.244 94.171 94.17 94.171c41.025 0 76-26.372 88.88-63.051a40.07 40.07 0 0 1-14.516-4.764c-19.572-10.875-26.572-35.668-15.751-55.143l28.55-51.383-7.243-17.467h15.454l-42.46-48.62c47.483 30.48 32.157 20.52 67.291 43.729l-45.836 82.494c-6.043 10.876-2.125 24.592 8.751 30.635 10.881 6.045 24.595 2.12 30.635-8.751l55.971-100.734c5.717-10.29 2.547-23.25-7.277-29.739zM139.27 282.752l10.422-19.794 18.225 43.95a94.836 94.836 0 0 0-28.647-24.156zM269.242 50.598c-1.513 11.86 2.091 24.278 10.924 33.665 15.683 16.666 41.908 17.463 58.575 1.78a41.365 41.365 0 0 0 8.502-11.312 26.145 26.145 0 0 1-3.102-.903c-15.959-5.869-32.756-10.723-47.576-15.006-10.079-2.912-19.202-5.549-27.323-8.224zM351.284 54.405a5.407 5.407 0 0 0 4.541-.379 5.39 5.39 0 0 0 2.628-3.722c1.593-8.85 2.502-18.95-2.121-26.431C346.214 7.499 332.32.225 307.274.225c-4.733 0-9.865.26-15.444.767-3.505.319-6.946.432-10.274.432-8.188 0-15.686-.686-21.747-.686-7.495 0-12.793 1.049-14.474 5.74-7.452 20.795 50.975 27.709 105.949 47.927z"/><path d="M365.626 271.229c-6.752 0-13.339.721-19.692 2.078l-22.561-67.909-21.007 2.41 6.149 18.508-33.601 2.773a40.456 40.456 0 0 1 8.678 16.849c.256 1.045.459 2.096.631 3.149l12.354-1.02-12.255 13.412a40.501 40.501 0 0 1-4.673 13.791l-31.188 56.13 69.645-76.215 8.192 24.659c-32.341 14.926-54.843 47.66-54.843 85.555 0 51.926 42.245 94.171 94.171 94.171 51.925 0 94.17-42.245 94.17-94.171 0-51.925-42.245-94.17-94.17-94.17zm0 163.275c-38.103 0-69.104-31-69.104-69.104 0-26.819 15.368-50.102 37.751-61.55l21.533 64.813c1.442 4.341 5.482 7.088 9.818 7.088 1.082 0 2.182-.171 3.265-.531 5.422-1.802 8.359-7.659 6.557-13.082l-21.537-64.827a69.2 69.2 0 0 1 11.717-1.014c38.104 0 69.103 31 69.103 69.103 0 38.104-30.999 69.104-69.103 69.104z"/></g></svg>