<svg xmlns="http://www.w3.org/2000/svg" width="512" height="512" viewBox="0 0 481.75 481.75"><g fill="#4CB648"><circle cx="240.876" cy="130.292" r="50.279"/><path d="M455.362 27.768c-4.006 0-7.57 1.853-9.906 4.744v-8.477c0-7.026-5.691-12.722-12.719-12.722-5.142 0-9.563 3.05-11.568 7.437v-6.029c0-7.024-5.695-12.72-12.719-12.72-7.029 0-12.726 5.696-12.726 12.72v39.706h-46.911c-3.031-6.854-10.152-11.32-18.017-10.52-6.555.688-11.824 4.895-14.313 10.52H165.271c-2.488-5.625-7.76-9.832-14.314-10.52-7.865-.801-14.984 3.665-18.016 10.52H86.029V12.72C86.029 5.696 80.332 0 73.304 0c-7.023 0-12.717 5.696-12.717 12.72v6.029c-2.01-4.387-6.432-7.437-11.57-7.437-7.025 0-12.721 5.695-12.721 12.722v8.478c-2.334-2.892-5.9-4.744-9.904-4.744-7.025 0-12.725 5.695-12.725 12.722v49.312c0 7.024 5.699 12.72 12.725 12.72 4.004 0 7.57-1.852 9.904-4.745v8.48c0 7.024 5.695 12.72 12.721 12.72 5.139 0 9.561-3.05 11.57-7.437v6.028c0 7.024 5.693 12.72 12.717 12.72 7.027 0 12.725-5.695 12.725-12.72V77.866h43.855c-1.734 31.823-1.367 87.949 19.947 111.313 16.098 17.644 33.611 27.786 45.289 33.155v90.037c-25.604 7.097-45.365 21.189-62.311 43.779-22.859 30.483-23.553 90.421-23.461 102.128.102 13.002 10.676 23.472 23.652 23.472h.193c13.07-.104 23.576-10.78 23.475-23.849-.176-21.824 4.152-60.232 13.996-73.356 14.041-18.712 30.723-30.336 70.211-30.452 39.496.115 56.172 11.74 70.213 30.452 9.842 13.124 14.17 51.532 13.994 73.356-.101 13.067 10.404 23.743 23.475 23.849h.193c12.979 0 23.553-10.47 23.652-23.472.094-11.707-.601-71.645-23.459-102.128-16.945-22.59-36.709-36.683-62.312-43.779v-90.037c11.676-5.37 29.191-15.512 45.287-33.155 21.316-23.364 21.682-79.49 19.949-111.313h43.854v39.706c0 7.024 5.695 12.72 12.726 12.72 7.022 0 12.719-5.695 12.719-12.72v-6.028c2.006 4.386 6.428 7.437 11.568 7.437 7.026 0 12.719-5.696 12.719-12.72v-8.479c2.336 2.893 5.899 4.745 9.906 4.745 7.026 0 12.723-5.696 12.723-12.72V40.49c.003-7.027-5.692-12.722-12.72-12.722zM305.704 165.261c-11.121 12.19-29.635 23.104-31.471 23.689s-12.715-2.748-33.357-2.748c-20.645 0-30.07 2.996-33.357 2.748s-20.348-11.499-31.471-23.689c-9.701-10.633-12.746-50.6-10.621-87.395h150.898c2.127 36.795-.92 76.762-10.621 87.395z"/></g></svg>