<svg xmlns="http://www.w3.org/2000/svg" width="512" height="512" viewBox="0 0 473.814 473.814"><g fill="#4CB648"><path d="M111.504 46.114c-30.813 4.572-42.701 11.188-67.183 37.404C16.89 112.896-.756 159.803.025 204.471c0 48.467 15.333 91.836 39.48 120.885v90.875c0 7.281 5.902 13.184 13.183 13.184h106.803c7.281 0 13.183-5.901 13.183-13.184v-93.779c25.04-34.869 39.548-81.973 38.251-97.186-1.661-19.449-21.825-49.605-46.266-42.328-19.966 5.947-31.873 33.705-44.296 32.238-10.518-1.242-6.654-20.568 4.674-39.375 18.365-30.484 91.549 12.553 98.438-45.033 6.891-57.584-42.33-94.99-111.971-84.654zm34.805 286.463v70.473H65.871v-70.473h80.438zM429.493 83.52c-24.479-26.219-36.368-32.832-67.182-37.406-69.643-10.336-118.861 27.07-111.972 84.656 6.889 57.584 80.072 14.549 98.438 45.031 11.327 18.809 15.19 38.133 4.675 39.375-12.424 1.469-24.332-26.289-44.296-32.236-24.442-7.279-44.605 22.877-46.267 42.326-1.298 15.225 13.231 62.383 38.304 97.26v93.705c0 7.252 5.879 13.131 13.13 13.131h106.804c7.251 0 13.13-5.879 13.13-13.131V325.42c24.176-29.05 39.531-72.447 39.531-120.95.784-44.667-16.864-91.574-44.295-120.95zm-21.495 319.583h-80.542v-69.807h80.542v69.807z"/></g></svg>