<svg xmlns="http://www.w3.org/2000/svg" width="512" height="512" viewBox="0 0 197.978 197.978"><g fill="#4CB648"><circle cx="167.449" cy="134.378" r="15.414"/><path d="M197.784 152.256a5.587 5.587 0 0 0-6.867-3.963l-37.319 10.004-5.855-12.034a11.116 11.116 0 0 0 1.932-6.281c0-6.188-5.018-11.207-11.206-11.207H67.245c-2.825 0-5.375 1.078-7.347 2.802H8.404c-4.641 0-8.404 3.765-8.404 8.405s3.764 8.404 8.404 8.404h51.494c1.973 1.724 4.522 2.802 7.347 2.802h70.43l7.862 16.177a5.612 5.612 0 0 0 5.04 3.152l1.45-.191 41.789-11.209c2.994-.8 4.773-3.874 3.968-6.861zM69.02 125.798c.75.115 1.492.176 2.22.176 6.763 0 12.725-4.915 13.816-11.804l3.196-20.03 33.362 29.043a5.576 5.576 0 0 0 3.674 1.381 5.55 5.55 0 0 0 4.223-1.934 5.582 5.582 0 0 0-.547-7.896L90.322 81.103l.343-2.12c1.222-7.643-3.989-14.827-11.626-16.037-7.676-1.22-14.826 3.995-16.038 11.628l-5.603 35.184c-1.226 7.646 3.987 14.825 11.622 16.04z"/><circle cx="84.867" cy="44.243" r="16.782"/></g></svg>