<svg xmlns="http://www.w3.org/2000/svg" width="512" height="512" viewBox="0 0 484.651 484.65"><g fill="#4CB648"><path d="M243.458 153.771c.085 0 .171-.006.257-.006.087 0 .172.006.258.006 42.464 0 76.884-34.422 76.884-76.887 0-42.46-34.42-76.884-76.884-76.884-.086 0-.171.006-.258.006-.086 0-.171-.006-.257-.006-42.465 0-76.884 34.424-76.884 76.884-.002 42.465 34.417 76.887 76.884 76.887zM436.565 311.038l-86.702-63.042-27.417-66.953c-5.218-12.74-17.645-20.336-30.638-20.05l-.004-.03H192.848l-.004.03c-12.994-.286-25.419 7.31-30.638 20.05l-27.418 66.953-86.702 63.042c-14.443 10.502-17.64 30.724-7.136 45.169 6.327 8.698 16.185 13.32 26.179 13.32a32.17 32.17 0 0 0 18.988-6.189l93.744-68.154-2.389 24.675-88.637 89.839a44.27 44.27 0 0 0-8.809 48.027 44.278 44.278 0 0 0 40.735 26.926h42.368c-10.918-9.882-17.88-24.627-17.88-41.093 0-29.688 22.571-53.839 50.315-53.839h48.258c15.807 0 28.35 12.922 28.35 12.922h-76.608c-21.085 0-38.24 18.354-38.24 40.917 0 22.562 17.155 40.916 38.24 40.916h74.192c.832-.06 1.68-.063 2.5-.161h89.683a44.279 44.279 0 0 0 40.735-26.929 44.272 44.272 0 0 0-8.808-48.025l-86.706-89.951h-.024l-2.345-24.224 93.743 68.154a32.16 32.16 0 0 0 18.986 6.189c9.995 0 19.853-4.622 26.18-13.32 10.505-14.445 7.309-34.667-7.135-45.169z"/></g></svg>