<svg xmlns="http://www.w3.org/2000/svg" viewBox="0 0 51 51" width="512" height="512"><g fill="#4CB648"><path d="M48.011 33.803c-6.846-.848-13.729-1.594-20.619-2.086-.525-2.92-1-5.285-.233-7.16.087-.076.706-1.14.81-1.277.375-.496.756-.984 1.166-1.452 1.154-1.318 2.406-2.551 3.629-3.805 1.996-2.043 2.627-5.029.652-7.385-.826-.987-2.127-1.649-3.474-1.837-5.149-2.451-10.497-4.4-15.986-5.978-4.179-1.2-6.498 5.179-2.281 6.392 3.825 1.1 7.579 2.38 11.246 3.884-2.368 2.411-4.651 5.031-5.732 8.139-1.136 3.264-.982 6.644-.498 9.991-1.709-.024-3.418-.067-5.11-.26-3.004-.342-6.531-.463-9.103 1.424-4.777 3.506-1.261 8.691-.795 13.201.449 4.359 7.128 3.158 6.682-1.172-.224-2.166-1.231-4.107-1.584-6.232-.17-1.024-.477-.424.589-.559 1.549-.197 3 .068 4.542.199 4.846.408 9.75.283 14.612.65 6.987.531 13.97 1.223 20.925 2.084 4.346.538 4.9-6.224.562-6.761z"/><circle cx="41.288" cy="11.292" r="5.323"/></g></svg>